<svg id="Слой_1" data-name="Слой 1" xmlns="http://www.w3.org/2000/svg" viewBox="0 0 968.77 387.27"><defs><style>.cls-1,.cls-3,.cls-4{fill:#004e9a;}.cls-2,.cls-5,.cls-6,.cls-9{fill:none;stroke-miterlimit:10;}.cls-2,.cls-5,.cls-9{stroke:#004e9a;}.cls-2,.cls-6{stroke-width:8px;}.cls-3{font-size:64.16px;}.cls-3,.cls-4{font-family:Code Pro;}.cls-4{font-size:56.28px;}.cls-5{stroke-width:4px;}.cls-6{stroke:#130e09;}.cls-7{fill:#1d1d1b;}.cls-8{fill:#034f99;}.cls-9{stroke-width:2px;}</style></defs><title>air_site</title><path class="cls-1" d="M1061.36,202.66c2.6,4.43,5.22,8.85,7.8,13.28a54,54,0,0,1,3,5.35,0.84,0.84,0,0,1-.82.84,4.33,4.33,0,0,1-1,.08q-8.8,0-17.61,0a2.92,2.92,0,0,1-1.84-.5q-3.66-6.23-7.32-12.46c-1.23-2.11-2.43-4.24-3.64-6.36a0.79,0.79,0,0,1,.82-0.91,9,9,0,0,1,1.18-.06q8.58,0,17.16,0A2.4,2.4,0,0,1,1061.36,202.66Z" transform="translate(-221.96 -6.63)"/><path class="cls-1" d="M1061.36,202.66a3.71,3.71,0,0,0-1.59-.22h-18.23a1.71,1.71,0,0,0-1.59.44l-7.19-12.23-1.69-2.87a0.78,0.78,0,0,1,.7-1.15,6,6,0,0,1,1.18-.08c5.74,0,11.48,0,17.23,0a2.67,2.67,0,0,1,2.36,1C1055.56,192.51,1058.52,197.55,1061.36,202.66Z" transform="translate(-221.96 -6.63)"/><path class="cls-1" d="M1052.54,187.51a6.17,6.17,0,0,0-2.62-.42c-5.78,0-11.56,0-17.34,0-0.6,0-1.27-.1-1.5.7-0.73-1-1.43-2-2.2-2.93a11,11,0,0,0-8-4.33c-0.9-.05-1.06-0.34-0.82-1.19,0.61-2.18.56-2.19,2.87-2.19H1057c1.26,0,1.26,0,1,1.24a6.37,6.37,0,0,0-.2.84,1.32,1.32,0,0,1-1.45,1.35,5.94,5.94,0,0,0-2.93,1,3.5,3.5,0,0,0-1.32,4.95C1052.23,186.86,1052.38,187.19,1052.54,187.51Z" transform="translate(-221.96 -6.63)"/><path class="cls-1" d="M1094.77,177.15c4.14,0,8.28,0,12.42,0,1,0,1,.28.9,1.17a2.46,2.46,0,0,1-2.58,2.43,8.86,8.86,0,0,0-6.79,4.47,1.16,1.16,0,0,1-1.12.65c-1.76,0-3.53,0-5.29,0a0.71,0.71,0,0,1-.85-0.47c-0.54-1.74-1.93-2.62-3.47-3.33a16.72,16.72,0,0,0-6.38-1.47c-1,0-1.21-.33-0.92-1.29,0.62-2.09.57-2.1,2.73-2.1h11.34Z" transform="translate(-221.96 -6.63)"/><path class="cls-1" d="M1064.44,248.71a23.76,23.76,0,0,1-4,5.39,3.76,3.76,0,0,1-1.89.32q-10.39,0-20.78,0a4.44,4.44,0,0,1-1.8-.28c-0.27-.51-0.56-1-0.8-1.53-0.95-2.14-.8-2.82.88-4.46a0.77,0.77,0,0,1,1-.18,22.39,22.39,0,0,0,16.53.52c3.07-.16,6.15-0.12,9.23-0.1A1.93,1.93,0,0,1,1064.44,248.71Z" transform="translate(-221.96 -6.63)"/><path class="cls-1" d="M1050.92,221.71l19.15,0a3.71,3.71,0,0,0,2.08-.4,28.86,28.86,0,0,1,2.65,4.45,0.68,0.68,0,0,1-.75.73,9.33,9.33,0,0,1-1.51.07c-6,0-11.93,0-17.9,0a1.49,1.49,0,0,1-1.1-.34A43.67,43.67,0,0,1,1050.92,221.71Z" transform="translate(-221.96 -6.63)"/><path class="cls-1" d="M1036,254.15a3.39,3.39,0,0,1,1.58-.26h21.17a6.17,6.17,0,0,1,1.71.21,16.19,16.19,0,0,1-5.14,4.59c-4.51.12-9,0-13.52,0.06a6.21,6.21,0,0,1-2.34-.29A12.14,12.14,0,0,1,1036,254.15Z" transform="translate(-221.96 -6.63)"/><path class="cls-1" d="M1053.56,226.23a12.83,12.83,0,0,1,2.78-.23h16.9a2.5,2.5,0,0,0,1.56-.27c1.46,2.3,1.54,1.49-.26,4.59a2.24,2.24,0,0,1-1.69.52q-7.61,0-15.22,0a2.39,2.39,0,0,1-1.69-.52A34.19,34.19,0,0,1,1053.56,226.23Z" transform="translate(-221.96 -6.63)"/><path class="cls-1" d="M1055.95,230.33h18.6a17.18,17.18,0,0,1-1.51,2.81,2.89,2.89,0,0,1-1.82.53c-3.95,0-7.89,0-11.84,0a2.16,2.16,0,0,1-1.91-.74A15.44,15.44,0,0,1,1055.95,230.33Z" transform="translate(-221.96 -6.63)"/><path class="cls-1" d="M1057.45,232.93a4.13,4.13,0,0,0,1.69.21H1073a22.91,22.91,0,0,1-1.75,3.24,2.66,2.66,0,0,1-1.7.53c-2.93,0-5.86,0-8.79,0a2.09,2.09,0,0,1-1.58-.52Z" transform="translate(-221.96 -6.63)"/><path class="cls-1" d="M1039.47,258.46a6,6,0,0,1,1.8-.25h12.48a1.63,1.63,0,0,1,1.57.47c-3,2.22-9.64,4-14.26,1A6.5,6.5,0,0,1,1039.47,258.46Z" transform="translate(-221.96 -6.63)"/><path class="cls-1" d="M1064.44,248.71a6,6,0,0,1-2.24.21H1055a1.53,1.53,0,0,1-1.38-.42,13.76,13.76,0,0,0,5.35-3.75,7.34,7.34,0,0,1,2.43,0,38.78,38.78,0,0,0,4.07-.1,1,1,0,0,1,1.12.42A17.26,17.26,0,0,1,1064.44,248.71Z" transform="translate(-221.96 -6.63)"/><path class="cls-1" d="M1059.2,236.38h12.08a19.92,19.92,0,0,1-1.65,3.06,3.17,3.17,0,0,1-1.25.27q-3.48.05-7,0a1.56,1.56,0,0,1-1.35-.52Z" transform="translate(-221.96 -6.63)"/><path class="cls-1" d="M1060.06,239.19h8a3.48,3.48,0,0,1,1.58.25,20.27,20.27,0,0,1-1.6,3,1.28,1.28,0,0,1-.45.28,23.19,23.19,0,0,1-6.91.09,0.94,0.94,0,0,1-.6-0.58v-3Z" transform="translate(-221.96 -6.63)"/><path class="cls-1" d="M1060.07,242.22c2.64,0.43,5.31.12,8,.21a11.88,11.88,0,0,1-1.48,2.6,36.07,36.07,0,0,1-5.56.21,3.52,3.52,0,0,1-2.05-.49Z" transform="translate(-221.96 -6.63)"/><rect class="cls-2" x="782.09" y="152.58" width="120" height="120"/><rect class="cls-2" x="684.3" y="42.62" width="110" height="110"/><path class="cls-1" d="M954.66,60.71l-14.51,40.9H956l-11.87,46.18,38.26-56.74H965.22l11.87-30.35H954.66Z" transform="translate(-221.96 -6.63)"/><rect class="cls-2" x="603.26" y="71.34" width="81.04" height="81.04"/><text class="cls-3" transform="translate(608.32 121.25)">&gt;</text><text class="cls-4" transform="translate(633.65 110.67)">_</text><rect class="cls-2" x="67.99" y="224.07" width="156.1" height="156.1"/><path class="cls-1" d="M426.31,303.88l-0.17-2.11-7-2.43c-0.27-1.47-.6-2.93-1-4.35l5.23-5.21-0.76-2a58.55,58.55,0,0,0-4.22-8.75l-1.07-1.82-7.33.85q-1.3-1.78-2.79-3.48l2.46-7-1.54-1.45a59.12,59.12,0,0,0-7.59-6.08l-1.76-1.18-6.26,3.95q-2-1.05-4-1.94l-0.81-7.36-2-.64a58.35,58.35,0,0,0-9.48-2.15l-2.09-.3-3.91,6.27c-1.55-.07-2.9-0.07-4.45,0l-3.91-6.27-2.09.3a58.32,58.32,0,0,0-9.48,2.15l-2,.64-0.81,7.36q-2,.88-4,1.94l-6.26-3.95-1.76,1.18a59,59,0,0,0-7.59,6.08l-1.54,1.45,2.46,7q-1.48,1.69-2.79,3.48l-7.33-.85-1.07,1.82a58.49,58.49,0,0,0-4.22,8.75l-0.76,2,5.23,5.21c-0.39,1.43-.72,2.88-1,4.35l-7,2.43-0.17,2.11c-0.15,1.76-.22,3.35-0.22,4.87s0.07,3.11.22,4.87l0.17,2.11,7,2.43c0.27,1.47.6,2.93,1,4.35l-5.23,5.21,0.76,2a58.57,58.57,0,0,0,4.22,8.75l1.07,1.82,7.33-.85c0.87,1.19,1.8,2.35,2.79,3.48l-2.46,7,1.54,1.45a58.72,58.72,0,0,0,7.59,6.08l1.76,1.18,6.26-3.95q2,1.05,4,1.94l0.81,7.35,2,0.64a58.25,58.25,0,0,0,9.48,2.15l2.09,0.3,3.91-6.27c1.55,0.07,2.9.07,4.45,0l3.91,6.27,2.09-.3a58.35,58.35,0,0,0,9.48-2.15l2-.64,0.81-7.35c1.37-.59,2.71-1.23,4-1.94l6.26,3.95,1.76-1.18a58.86,58.86,0,0,0,7.59-6.08l1.54-1.45-2.46-7q1.48-1.69,2.79-3.48l7.33,0.85,1.07-1.82a58.23,58.23,0,0,0,4.22-8.75l0.76-2-5.23-5.21c0.39-1.43.72-2.88,1-4.36l7-2.43,0.17-2.11c0.14-1.76.21-3.35,0.21-4.87S426.46,305.64,426.31,303.88ZM420,311l-6.64,2.31-0.28,2a45.25,45.25,0,0,1-1.64,7.21l-0.6,1.89,5,5q-0.88,2-1.93,4l-7-.81-1.11,1.64a45.82,45.82,0,0,1-4.62,5.77l-1.36,1.44,2.34,6.63q-1.7,1.48-3.49,2.79l-6-3.75L391,348a45.34,45.34,0,0,1-6.65,3.21l-1.85.71-0.77,7c-1.42.39-2.87,0.71-4.34,1l-3.73-6-2,.16a41.75,41.75,0,0,1-7.39,0l-2-.16-3.73,6c-1.47-.27-2.92-0.59-4.34-1l-0.77-7-1.85-.71A45.51,45.51,0,0,1,345,348l-1.71-1-6,3.75q-1.78-1.31-3.48-2.79l2.34-6.63-1.36-1.44a46,46,0,0,1-4.62-5.77l-1.11-1.64-7,.81q-1-2-1.93-4l5-5-0.6-1.89a45.55,45.55,0,0,1-1.64-7.21l-0.28-2L316,311c0-.78-0.05-1.52-0.05-2.24s0-1.46.06-2.24l6.64-2.31,0.28-2a45.32,45.32,0,0,1,1.64-7.21l0.6-1.89-5-5c0.59-1.36,1.23-2.7,1.93-4l7,0.81,1.11-1.64a46,46,0,0,1,4.62-5.77l1.36-1.44-2.34-6.63q1.7-1.48,3.49-2.79l6,3.75,1.71-1a45.22,45.22,0,0,1,6.66-3.21l1.85-.71,0.77-7c1.42-.39,2.87-0.71,4.34-1l3.73,6,2-.16a41.47,41.47,0,0,1,7.39,0l2,0.16,3.73-6c1.47,0.27,2.92.59,4.34,1l0.77,7,1.85,0.71a45.37,45.37,0,0,1,6.66,3.21l1.71,1,6-3.75q1.79,1.31,3.49,2.79l-2.34,6.63,1.36,1.44a45.88,45.88,0,0,1,4.62,5.77L406.9,285l7-.81q1,2,1.93,4l-5,5,0.6,1.89a45.6,45.6,0,0,1,1.64,7.21l0.28,2,6.64,2.31c0,0.78.05,1.52,0.05,2.24S420,310.21,420,311Z" transform="translate(-221.96 -6.63)"/><path class="cls-1" d="M368,295.74a13,13,0,1,0,13,13A13,13,0,0,0,368,295.74Z" transform="translate(-221.96 -6.63)"/><rect class="cls-2" x="467.45" y="17.75" width="134.84" height="134.84"/><path id="path17" class="cls-1" d="M783.62,47a24.38,24.38,0,0,1,24.57,24.7A23.51,23.51,0,0,1,784.25,95.1c-13.86,0-24.93-10.84-24.88-24.39A23.82,23.82,0,0,1,783.62,47Z" transform="translate(-221.96 -6.63)"/><path id="path19" class="cls-1" d="M720.35,93.08a14.66,14.66,0,0,1-14.89-14.22,14.1,14.1,0,0,1,13.86-14,14.58,14.58,0,0,1,15,14.53A13.62,13.62,0,0,1,720.35,93.08Z" transform="translate(-221.96 -6.63)"/><path id="path21" class="cls-1" d="M717.65,130c1.08-5.13,4-7.87,8.82-8.46s8.1,2,10.48,6c3,4.81,6.39,4.81,9.18,0,4.59-8,13.27-8.23,18.27-.58,3.73,5.67,6.34,5.62,9.94,0,2.61-4.09,6.25-6.16,12-4.95-0.49,1.57-.81,4.14-1.3,4.14-4.41.32-5.62,4-8,6.7-4.95,5.76-12.91,4.68-16.92-2.11-3.15-5.35-6.16-5.44-9.45-.27-5.4,8.46-13.77,8.32-18.67-.27-2.47-4.32-6-4.72-8.77-.45C721.34,132.72,719.86,131.64,717.65,130Z" transform="translate(-221.96 -6.63)"/><rect class="cls-2" x="351.79" y="36.91" width="115.67" height="115.67"/><path class="cls-1" d="M592,93.95h-1.54V98c0,1-.26,2.6-1.65,3.19a3.28,3.28,0,0,1,1.65,3.16v4H592v3.81h-2.11a3.31,3.31,0,0,1-3.55-3.6v-3.81a1.37,1.37,0,0,0-1.42-1.62V99.27a1.38,1.38,0,0,0,1.42-1.65V93.77a3.32,3.32,0,0,1,3.55-3.63H592v3.81Z" transform="translate(-221.96 -6.63)"/><path class="cls-1" d="M607.49,102.18h4.45a9,9,0,0,1-9.21,7.82,9.27,9.27,0,1,1,0-18.54,9,9,0,0,1,9.18,7.77h-4.45c-1.34-5.24-9.67-4.73-9.67,1.54S606.23,107.5,607.49,102.18Z" transform="translate(-221.96 -6.63)"/><path class="cls-1" d="M622.68,91.45a9.27,9.27,0,1,1-9.31,9.31A9.23,9.23,0,0,1,622.68,91.45Zm4.91,9.31c0-6.79-9.85-6.82-9.85,0S627.59,107.5,627.59,100.76Z" transform="translate(-221.96 -6.63)"/><path class="cls-1" d="M640.26,91.74c5.94,0,8.92,4.52,8.92,9s-3,9-8.92,9H633.6v-18h6.66Zm0,13.88c3,0,4.47-2.49,4.47-4.86s-1.44-5-4.47-5h-2.31v9.82h2.31Z" transform="translate(-221.96 -6.63)"/><path class="cls-1" d="M655.07,105.49h7.56v4.24H650.75v-18H662.6V96h-7.53V98.6h7.38v4.27h-7.38v2.62Z" transform="translate(-221.96 -6.63)"/><path class="cls-1" d="M669.59,107.94l-2.6,4.68h-3.65l2.14-5.91h4.11v1.23ZM667,96.83A2.15,2.15,0,0,0,664.83,99a2.26,2.26,0,0,0,4.53,0A2.16,2.16,0,0,0,667,96.83Z" transform="translate(-221.96 -6.63)"/><path class="cls-1" d="M671.13,90.19h2.14a3.31,3.31,0,0,1,3.52,3.63v3.81a1.39,1.39,0,0,0,1.44,1.65v3.86a1.38,1.38,0,0,0-1.44,1.62v3.6a3.3,3.3,0,0,1-3.52,3.6h-2.14v-3.81h1.54v-3.78a3.58,3.58,0,0,1,1.44-3.16A3.59,3.59,0,0,1,672.67,98V94h-1.54V90.19Z" transform="translate(-221.96 -6.63)"/><rect class="cls-2" x="135.83" y="8.23" width="215.66" height="215.66"/><path class="cls-1" d="M537.9,125.74h0V102.21a8.81,8.81,0,0,0-8.8-8.8h-59.8l-0.72-33.76a6.45,6.45,0,1,0-9.34-5.75A6.62,6.62,0,0,0,463,59.83l-0.9,33.58h-59.8a8.81,8.81,0,0,0-8.8,8.8v23.53a8.74,8.74,0,0,0-8.62,8.62V157a8.74,8.74,0,0,0,8.62,8.62v23.53a8.81,8.81,0,0,0,8.8,8.8H528.92a8.81,8.81,0,0,0,8.8-8.8V165.61h0a8.74,8.74,0,0,0,8.62-8.62V134.36A8.36,8.36,0,0,0,537.9,125.74Zm-125,7.9a19.57,19.57,0,1,1,19.57,19.57A19.39,19.39,0,0,1,412.9,133.64Zm77.4,43.28H441.1V165.43h49.21v11.49Zm8.62-23.53a19.57,19.57,0,1,1,19.57-19.57A19.62,19.62,0,0,1,498.93,153.4Z" transform="translate(-221.96 -6.63)"/><line class="cls-5" x1="854.09" y1="344.58" x2="782.09" y2="272.58"/><line class="cls-5" x1="782.09" y1="344.58" x2="854.09" y2="272.58"/><rect class="cls-2" x="782.09" y="272.58" width="72" height="72"/><rect class="cls-2" x="224.09" y="223.88" width="127.4" height="127.4"/><path class="cls-1" d="M548.46,295.19a8.16,8.16,0,0,0-.91-9.25,8.35,8.35,0,0,0,.91-3.77,9,9,0,0,0-1.14-4.23,8.88,8.88,0,0,0,.23-1.83,7.84,7.84,0,0,0-3.08-6.28,9,9,0,0,0,.23-1.6,8,8,0,0,0-3-6.17,8,8,0,0,0-5.37-7.31,7.81,7.81,0,0,0-8.11-5.37,7.52,7.52,0,0,0-6.17-3,6.51,6.51,0,0,0-2.51.46,8.91,8.91,0,0,0-2.51-.46c-3.08,0-5.94,3-7.08,5.82-0.11,0-.11.11-0.23,0.11s-0.11-.11-0.23-0.11c-1.26-2.85-4-5.82-7.08-5.82a6.51,6.51,0,0,0-2.51.46,8.91,8.91,0,0,0-2.51-.46,8,8,0,0,0-6.17,3,7.81,7.81,0,0,0-8.11,5.37,8,8,0,0,0-5.37,7.31,8,8,0,0,0-3,6.17,6.74,6.74,0,0,0,.23,1.6,7.84,7.84,0,0,0-3.08,6.28,10,10,0,0,0,.23,1.83,7.84,7.84,0,0,0-1.14,4.23,8.35,8.35,0,0,0,.91,3.77,8.07,8.07,0,0,0-1.94,5.25,8.33,8.33,0,0,0,1,4,8,8,0,0,0-1,4,9,9,0,0,0,1.14,4.23,8.88,8.88,0,0,0-.23,1.83,7.61,7.61,0,0,0,1.37,4.45,8.91,8.91,0,0,0-.46,2.51,7.84,7.84,0,0,0,3.08,6.28,7.83,7.83,0,0,0,1.26,3.2,8.91,8.91,0,0,0-.46,2.51,7.77,7.77,0,0,0,4.23,7,7.65,7.65,0,0,0,7.31,5.82,34.53,34.53,0,0,0,10,5,7.57,7.57,0,0,0,4.11-1.26,8.81,8.81,0,0,0,1.71.23c2.4,0,4.68-2.28,6.17-4.11h0.57c1.48,1.94,3.65,4.11,6.17,4.11a8.81,8.81,0,0,0,1.71-.23,7.57,7.57,0,0,0,4.11,1.26,34.53,34.53,0,0,0,10-5,7.71,7.71,0,0,0,7.31-5.82,7.77,7.77,0,0,0,4.23-7,6.51,6.51,0,0,0-.46-2.51,6.51,6.51,0,0,0,1.26-3.2,7.84,7.84,0,0,0,3.08-6.28,6.51,6.51,0,0,0-.46-2.51,7.87,7.87,0,0,0,1.37-4.45,10,10,0,0,0-.23-1.83,7.84,7.84,0,0,0,1.14-4.23A5.31,5.31,0,0,0,548.46,295.19Zm-2.85.8a5.14,5.14,0,0,1,0,6.17l-0.46.69,0.23,0.69a3.89,3.89,0,0,1,.23,1.6,5,5,0,0,1-1.26,3.31l-0.57.69,0.34,0.8a4.63,4.63,0,0,1,.46,2.17,5.15,5.15,0,0,1-2.28,4.23l-0.57.34v0.69a4.67,4.67,0,0,1-1.26,3l-0.57.69,0.34,0.8a4.63,4.63,0,0,1,.46,2.17,5.14,5.14,0,0,1-3.08,4.68l-0.8.34-0.11.8a4.84,4.84,0,0,1-4.91,4.23h-0.34l-0.91-.11-0.46.69a4.9,4.9,0,0,1-3.65,2.28l-0.57.11-0.34.34a4.93,4.93,0,0,1-3.65,1.6,4.47,4.47,0,0,1-3-1l-0.46-.34-0.69.23c-2.17.69-5.14-1.6-6.39-3.43v-5l0.11-.11,7.88-7.88h8.45a4.78,4.78,0,0,0,.91,1.37,3.88,3.88,0,1,0,2.74-6.62,3.85,3.85,0,0,0-3.65,2.51H519a1,1,0,0,0-1.14.34l-6.62,6.62v-9.25c0.11-.11.23-0.11,0.34-0.23l8.79-8.79h14.73a4.78,4.78,0,0,0,.91,1.37,3.88,3.88,0,1,0,2.74-6.62,3.85,3.85,0,0,0-3.65,2.51h-12l7.77-7.77a1,1,0,0,0,.34-1v-7.31l5.82-5.82a3.65,3.65,0,0,0,1.6.34,3.88,3.88,0,1,0-2.74-6.62,3.87,3.87,0,0,0-.8,4.34l-3.88,3.88V271.78h0a4.72,4.72,0,0,0,1.26-.8,3.88,3.88,0,1,0-6.62-2.74,3.88,3.88,0,0,0,2.4,3.54v12.79l-3.65-4a3.66,3.66,0,0,0-.8-4.34,3.88,3.88,0,1,0-2.74,6.62,4,4,0,0,0,1.6-.34l5.82,5.82v7L520.82,303v-6.17a4.78,4.78,0,0,0,1.37-.91,3.88,3.88,0,1,0-6.62-2.74,3.85,3.85,0,0,0,2.51,3.65v8.91l-6.74,6.74V271.09l5.82-5.82a3.65,3.65,0,0,0,1.6.34A3.88,3.88,0,1,0,516,259a3.87,3.87,0,0,0-.8,4.34l-5.37,5.37-5.37-5.37a3.66,3.66,0,0,0-.8-4.34,3.88,3.88,0,1,0-2.74,6.62,4,4,0,0,0,1.6-.34l5.82,5.82v29.23l-9.93-9.93v-8.34a4.78,4.78,0,0,0,1.37-.91,3.88,3.88,0,1,0-6.62-2.74,3.85,3.85,0,0,0,2.51,3.65v5.6l-8.11-8v-8a4.78,4.78,0,0,0,1.37-.91,3.88,3.88,0,1,0-6.62-2.74,3.85,3.85,0,0,0,2.51,3.65v8.91a1.4,1.4,0,0,0,.8,1.26l7.88,7.88h-5.37a3.85,3.85,0,0,0-3.65-2.51,3.88,3.88,0,1,0,2.74,6.62,4.11,4.11,0,0,0,.91-1.37h8.22l12,12v21l-6.17-6.17v-8.45a4.78,4.78,0,0,0,1.37-.91,3.88,3.88,0,1,0-6.62-2.74,3.85,3.85,0,0,0,2.51,3.65v5.6l-9.82-9.71a3.65,3.65,0,0,0,.34-1.6,3.88,3.88,0,1,0-3.88,3.88,3.65,3.65,0,0,0,1.6-.34l9.82,9.71h-5.6a3.85,3.85,0,0,0-3.65-2.51,3.88,3.88,0,1,0,2.74,6.62,4.11,4.11,0,0,0,.91-1.37h8.45l8.11,8.11v4.91c-1.14,1.94-4.34,4.23-6.62,3.43h-0.8l-0.57.46a4.93,4.93,0,0,1-3,1,5.12,5.12,0,0,1-3.65-1.6l-0.34-.34L493,337a4.9,4.9,0,0,1-3.65-2.28l-0.46-.69H487.7a5.11,5.11,0,0,1-4.91-4.23l-0.11-.8-0.8-.34a5.17,5.17,0,0,1-2.63-6.85l0.34-.8-0.57-.57a5.38,5.38,0,0,1-1.26-3v-0.69l-0.57-.34a4.88,4.88,0,0,1-2.28-4.23,5,5,0,0,1,.46-2.17l0.34-.8-0.57-.69a5,5,0,0,1-1.26-3.31,7.71,7.71,0,0,1,.23-1.6l0.23-.69-0.46-.8a5.14,5.14,0,0,1,0-6.17l0.69-.91-0.69-.91a5.08,5.08,0,0,1,.8-7l1-.91-0.8-1.14a5.14,5.14,0,0,1,0-6.17l0.46-.57-0.23-.69a3.89,3.89,0,0,1-.23-1.6,5.18,5.18,0,0,1,2.63-4.45l1-.57-0.46-1.14a4.73,4.73,0,0,1-.34-1.83,5.15,5.15,0,0,1,2.28-4.23l0.69-.46-0.11-.8V262.3a4.92,4.92,0,0,1,3.88-4.91l0.91-.23,0.23-.91a5.07,5.07,0,0,1,5.94-3.88l1,0.23,0.57-.91a5,5,0,0,1,4.23-2.4,5.8,5.8,0,0,1,1.94.34l0.57,0.23,0.57-.23a5.33,5.33,0,0,1,1.94-.34c2.06,0,4,2.51,4.68,4.57l0.23,0.69,0.69,0.23c0.34,0.11.69,0.34,1,.46l0.8,0.46,0.8-.46a4.06,4.06,0,0,1,1-.46l0.69-.23,0.23-.69c0.69-2.06,2.63-4.57,4.68-4.57a5.8,5.8,0,0,1,1.94.34l0.57,0.23,0.57-.23a5.33,5.33,0,0,1,1.94-.34,5,5,0,0,1,4.23,2.4l0.57,0.91,1-.23a4.93,4.93,0,0,1,5.94,3.88l0.23,0.91,0.91,0.23a4.92,4.92,0,0,1,3.88,4.91v0.34l-0.11.8,0.69,0.46a4.88,4.88,0,0,1,2.28,4.23,5.68,5.68,0,0,1-.34,1.83l-0.46,1.14,1,0.57a5.18,5.18,0,0,1,2.63,4.45,7.71,7.71,0,0,1-.23,1.6l-0.23.69L544.8,279a5.14,5.14,0,0,1,0,6.17l-0.8,1.14,1,0.91a5.08,5.08,0,0,1,.8,7l-0.69.91Zm-15.76,23.87a1.7,1.7,0,0,1,2.85-1.26,1.47,1.47,0,0,1,.46,1.14A1.7,1.7,0,0,1,530.3,321,1.52,1.52,0,0,1,529.84,319.85Zm-12.22-26.61a1.74,1.74,0,0,1,.46-1.14,1.47,1.47,0,0,1,1.14-.46,1.7,1.7,0,0,1,1.26,2.85,1.47,1.47,0,0,1-1.14.46A1.76,1.76,0,0,1,517.62,293.24Zm19.53,12.56a1.7,1.7,0,0,1,2.85-1.26,1.47,1.47,0,0,1,.46,1.14,1.7,1.7,0,0,1-2.85,1.26A1.32,1.32,0,0,1,537.15,305.81Zm-8.91-37.68a1.66,1.66,0,1,1,2.85,1.26,1.47,1.47,0,0,1-1.14.46A1.68,1.68,0,0,1,528.24,268.12Zm9.36,9.59a1.64,1.64,0,0,1,1.14-.46,1.32,1.32,0,0,1,1.14.46,1.66,1.66,0,0,1,0,2.4,1.64,1.64,0,0,1-1.14.46,1.32,1.32,0,0,1-1.14-.46A1.66,1.66,0,0,1,537.61,277.71Zm-15.42,2.4a1.64,1.64,0,0,1-1.14.46,1.32,1.32,0,0,1-1.14-.46,1.66,1.66,0,0,1,0-2.4,1.64,1.64,0,0,1,1.14-.46,1.32,1.32,0,0,1,1.14.46A1.66,1.66,0,0,1,522.19,280.11Zm-4.68-19.64a1.64,1.64,0,0,1,1.14-.46,1.32,1.32,0,0,1,1.14.46,1.66,1.66,0,0,1,0,2.4,1.64,1.64,0,0,1-1.14.46,1.32,1.32,0,0,1-1.14-.46A1.89,1.89,0,0,1,517.51,260.47Zm-15.42,2.4a1.64,1.64,0,0,1-1.14.46,1.32,1.32,0,0,1-1.14-.46,1.66,1.66,0,0,1,0-2.4A1.64,1.64,0,0,1,501,260a1.32,1.32,0,0,1,1.14.46A1.66,1.66,0,0,1,502.09,262.87Zm-4,16.79a1.47,1.47,0,0,1-1.14.46,1.7,1.7,0,0,1-1.26-2.85,1.47,1.47,0,0,1,1.14-.46,1.76,1.76,0,0,1,1.71,1.71A1.17,1.17,0,0,1,498.1,279.66Zm-10.85-10.51a1.47,1.47,0,0,1-1.14.46,1.66,1.66,0,1,1,1.6-1.6A1.09,1.09,0,0,1,487.25,269.15Zm-1.14,21.92a1.74,1.74,0,0,1-.46,1.14,1.47,1.47,0,0,1-1.14.46,1.7,1.7,0,0,1-1.26-2.85,1.47,1.47,0,0,1,1.14-.46A1.68,1.68,0,0,1,486.11,291.08ZM502,308.55a1.47,1.47,0,0,1-1.14.46,1.7,1.7,0,0,1-1.26-2.85,1.47,1.47,0,0,1,1.14-.46,1.76,1.76,0,0,1,1.71,1.71A1.47,1.47,0,0,1,502,308.55Zm-14.16-3.2a1.71,1.71,0,1,1-1.71-1.71A1.76,1.76,0,0,1,487.82,305.35ZM489.87,320a1.74,1.74,0,0,1-.46,1.14,1.47,1.47,0,0,1-1.14.46,1.7,1.7,0,0,1-1.26-2.85,1.47,1.47,0,0,1,1.14-.46A1.68,1.68,0,0,1,489.87,320Z" transform="translate(-221.96 -6.63)"/><rect class="cls-6" x="351.49" y="152.58" width="430.6" height="215.3"/><path class="cls-7" d="M607.16,281.28h-8l-1.9,5.8h-2.48l7-20.93h2.93l7.06,20.93h-2.6Zm-7.25-2.15h6.56l-3.08-9.84H603Z" transform="translate(-221.96 -6.63)"/><path class="cls-7" d="M614.19,287.08v-2h4V274.13h-4v-2h5.59l0.48,1.94h0.15a10.77,10.77,0,0,1,2.27-1.58,6.36,6.36,0,0,1,3-.66,3,3,0,0,1,1.63.39,2.59,2.59,0,0,1,1,1.14,6,6,0,0,1,.46,1.81,21.92,21.92,0,0,1,.12,2.41l-2.09,0a7.68,7.68,0,0,0-.37-2.79,1.36,1.36,0,0,0-1.36-.89,4.91,4.91,0,0,0-1.67.27,5.45,5.45,0,0,0-1.3.66,7,7,0,0,0-.94.78,4.66,4.66,0,0,0-.57.66v8.8h5.74v2H614.19Z" transform="translate(-221.96 -6.63)"/><path class="cls-7" d="M631.08,272.13h3.56v-3l2.36-.66v3.62h8v2h-8v7.06a4.37,4.37,0,0,0,1.06,3.23,4.12,4.12,0,0,0,3,1,5.1,5.1,0,0,0,2.34-.51,12.65,12.65,0,0,0,1.8-1.11l0.77,1.76a8.41,8.41,0,0,1-2.5,1.35,8.93,8.93,0,0,1-3,.51,7.29,7.29,0,0,1-2.26-.34,5.18,5.18,0,0,1-1.87-1.06,5.08,5.08,0,0,1-1.28-1.84,6.78,6.78,0,0,1-.48-2.68v-7.42h-3.56v-2Z" transform="translate(-221.96 -6.63)"/><path class="cls-7" d="M651.23,287.08v-2h5.2V274.13h-5.2v-2h7.57v12.95h5.08v2H651.23Zm4.37-19.2a2,2,0,0,1,.54-1.39,1.79,1.79,0,0,1,1.38-.58,2,2,0,0,1,1.45.58,1.9,1.9,0,0,1,.58,1.39,1.72,1.72,0,0,1-.58,1.32,2.06,2.06,0,0,1-1.45.54,1.87,1.87,0,0,1-1.38-.54A1.79,1.79,0,0,1,655.6,267.88Z" transform="translate(-221.96 -6.63)"/><path class="cls-7" d="M668.67,287.08v-2h3.56V274.13h-3.56v-2h3.56v-0.84a5.08,5.08,0,0,1,1.47-4.07,6.25,6.25,0,0,1,4.19-1.26,11.7,11.7,0,0,1,1.76.12,7.74,7.74,0,0,1,1.67.48l-0.54,1.94a6.08,6.08,0,0,0-1.49-.43A9.18,9.18,0,0,0,678,268a3.14,3.14,0,0,0-2.68,1,5.47,5.47,0,0,0-.72,3.18h6.19v2h-6.19v10.94h6.19v2H668.67Z" transform="translate(-221.96 -6.63)"/><path class="cls-7" d="M687.12,287.08v-2h5.2V274.13h-5.2v-2h7.57v12.95h5.08v2H687.12Zm4.37-19.2a2,2,0,0,1,.54-1.39,1.79,1.79,0,0,1,1.38-.58,2,2,0,0,1,1.45.58,1.9,1.9,0,0,1,.58,1.39,1.72,1.72,0,0,1-.58,1.32,2.06,2.06,0,0,1-1.45.54,1.87,1.87,0,0,1-1.38-.54A1.79,1.79,0,0,1,691.48,267.88Z" transform="translate(-221.96 -6.63)"/><path class="cls-7" d="M715,274.43a11.91,11.91,0,0,0-1.48-.4,7.72,7.72,0,0,0-1.57-.16,6.09,6.09,0,0,0-4.37,1.38,5.83,5.83,0,0,0-1.44,4.38,6.24,6.24,0,0,0,.42,2.35,4.79,4.79,0,0,0,1.2,1.75,5.34,5.34,0,0,0,1.87,1.11,7.1,7.1,0,0,0,2.41.39,7.91,7.91,0,0,0,2.74-.49,6.94,6.94,0,0,0,2.23-1.28l1,1.73a8.59,8.59,0,0,1-1,.75,10.38,10.38,0,0,1-1.45.73,10.12,10.12,0,0,1-1.83.55,10.59,10.59,0,0,1-2.17.21,9.75,9.75,0,0,1-3.42-.55,6.51,6.51,0,0,1-2.47-1.58,6.77,6.77,0,0,1-1.5-2.48,9.66,9.66,0,0,1-.51-3.21,9.93,9.93,0,0,1,.52-3.35,6.51,6.51,0,0,1,1.51-2.45,6.59,6.59,0,0,1,2.39-1.51,9,9,0,0,1,3.14-.52,13.74,13.74,0,0,1,3.6.39,13.31,13.31,0,0,1,2.35.87l0,0.09v4.16H715v-2.84Z" transform="translate(-221.96 -6.63)"/><path class="cls-7" d="M723,287.08v-2h5.2V274.13H723v-2h7.57v12.95h5.08v2H723Zm4.37-19.2a2,2,0,0,1,.54-1.39,1.79,1.79,0,0,1,1.38-.58,2,2,0,0,1,1.45.58,1.9,1.9,0,0,1,.58,1.39,1.72,1.72,0,0,1-.58,1.32,2.06,2.06,0,0,1-1.45.54,1.87,1.87,0,0,1-1.38-.54A1.79,1.79,0,0,1,727.37,267.88Z" transform="translate(-221.96 -6.63)"/><path class="cls-7" d="M741,273.29a9.52,9.52,0,0,1,2.9-1.08,15.88,15.88,0,0,1,3.17-.33,5.65,5.65,0,0,1,2.5.48,4,4,0,0,1,1.53,1.24,4.39,4.39,0,0,1,.75,1.73,10.05,10.05,0,0,1,.19,2q0,1.14-.06,2.42t-0.09,2.57a21.75,21.75,0,0,0,.18,2.84h2v1.94h-3.95l-0.27-2.24h-0.15a7.38,7.38,0,0,1-.54.69,4.89,4.89,0,0,1-.94.82,6.1,6.1,0,0,1-1.42.7,5.91,5.91,0,0,1-2,.3,5.12,5.12,0,0,1-3.51-1.14A3.93,3.93,0,0,1,740,283.1a4.5,4.5,0,0,1,.67-2.54,4.25,4.25,0,0,1,1.93-1.55,8.89,8.89,0,0,1,3-.63,20.53,20.53,0,0,1,4,.24,10.7,10.7,0,0,0,0-2.29,3.15,3.15,0,0,0-.48-1.45,2,2,0,0,0-1-.76,5.34,5.34,0,0,0-1.67-.22,8.84,8.84,0,0,0-2.58.37q-1.23.37-2.19,0.76Zm4.43,12.05a4.41,4.41,0,0,0,1.55-.27,4.75,4.75,0,0,0,1.26-.69,4.5,4.5,0,0,0,.9-0.91,4.39,4.39,0,0,0,.54-0.94v-2.09a16.9,16.9,0,0,0-2.87-.27,8.05,8.05,0,0,0-2.27.28,3.17,3.17,0,0,0-1.5.88,2.24,2.24,0,0,0-.54,1.55,2.45,2.45,0,0,0,.67,1.72A3,3,0,0,0,745.46,285.34Z" transform="translate(-221.96 -6.63)"/><path class="cls-7" d="M759.3,266.14h5v15.91a4.12,4.12,0,0,0,.61,2.57,2.2,2.2,0,0,0,1.81.75,4.35,4.35,0,0,0,1.6-.3,7.08,7.08,0,0,0,1.69-1l1.08,1.64a6.6,6.6,0,0,1-1,.75,7.75,7.75,0,0,1-1.17.55,7.89,7.89,0,0,1-1.2.34,5.78,5.78,0,0,1-1.11.12,6.37,6.37,0,0,1-2-.28,3.38,3.38,0,0,1-1.45-.91,4,4,0,0,1-.88-1.66,9.29,9.29,0,0,1-.3-2.56V268.15H759.3v-2Z" transform="translate(-221.96 -6.63)"/><path class="cls-7" d="M596.06,302h14.35v2.21h-5.95v16.51h5.95V323H596.06v-2.21H602V304.24h-5.92V302Z" transform="translate(-221.96 -6.63)"/><path class="cls-7" d="M615,313.24c0-.18,0-0.41,0-0.7s0-.59,0-0.9,0-.61-0.08-0.91-0.06-.56-0.1-0.78h-2V308h4l0.27,2.42h0.15a5,5,0,0,1,.79-1,6.19,6.19,0,0,1,1.15-.9,6.11,6.11,0,0,1,1.46-.64,6,6,0,0,1,1.71-.24,9,9,0,0,1,2.44.3,3.72,3.72,0,0,1,1.76,1.06,4.92,4.92,0,0,1,1.06,2.06,12.69,12.69,0,0,1,.36,3.3V323h-2.36v-8.12a7,7,0,0,0-.8-3.73,3.2,3.2,0,0,0-2.92-1.25,3.77,3.77,0,0,0-1.5.31A5.16,5.16,0,0,0,619,311a5.64,5.64,0,0,0-1,1.18,4.94,4.94,0,0,0-.65,1.42V323H615v-9.72Z" transform="translate(-221.96 -6.63)"/><path class="cls-7" d="M631.08,308h3.56v-3l2.36-.66V308h8v2h-8v7.06a4.37,4.37,0,0,0,1.06,3.23,4.12,4.12,0,0,0,3,1,5.1,5.1,0,0,0,2.34-.51,12.65,12.65,0,0,0,1.8-1.11l0.77,1.76a8.41,8.41,0,0,1-2.5,1.35,8.93,8.93,0,0,1-3,.51,7.29,7.29,0,0,1-2.26-.34,5.18,5.18,0,0,1-1.87-1.06,5.08,5.08,0,0,1-1.28-1.84,6.78,6.78,0,0,1-.48-2.68V310h-3.56v-2Z" transform="translate(-221.96 -6.63)"/><path class="cls-7" d="M663.91,321.08a7.55,7.55,0,0,1-1.27.9,9.3,9.3,0,0,1-1.6.72,11.64,11.64,0,0,1-1.81.46,11,11,0,0,1-1.9.16,8.45,8.45,0,0,1-3.17-.55,6.11,6.11,0,0,1-2.3-1.58,6.9,6.9,0,0,1-1.4-2.47,10.16,10.16,0,0,1-.48-3.23,9.93,9.93,0,0,1,.52-3.35,6.48,6.48,0,0,1,1.51-2.45,6.57,6.57,0,0,1,2.39-1.51,9,9,0,0,1,3.14-.52A9.56,9.56,0,0,1,660,308a4.91,4.91,0,0,1,2.17,1.24,5.93,5.93,0,0,1,1.45,2.51,11.67,11.67,0,0,1,.36,4.14H652.46a5.2,5.2,0,0,0,1.45,4,5.48,5.48,0,0,0,3.86,1.33,6.64,6.64,0,0,0,1.6-.19,13.19,13.19,0,0,0,1.51-.46,8,8,0,0,0,1.27-.6,5.6,5.6,0,0,0,.85-0.6Zm-6.3-11.45a8,8,0,0,0-1.86.21,4.25,4.25,0,0,0-1.55.7,3.87,3.87,0,0,0-1.1,1.29,5.17,5.17,0,0,0-.55,2h9.27a4.59,4.59,0,0,0-1.27-3.06A4,4,0,0,0,657.62,309.62Z" transform="translate(-221.96 -6.63)"/><path class="cls-7" d="M669.59,302h5v15.91a4.12,4.12,0,0,0,.61,2.57,2.2,2.2,0,0,0,1.81.75,4.35,4.35,0,0,0,1.6-.3,7.08,7.08,0,0,0,1.69-1l1.08,1.64a6.6,6.6,0,0,1-1,.75,7.75,7.75,0,0,1-1.17.55,7.89,7.89,0,0,1-1.2.34,5.78,5.78,0,0,1-1.11.12,6.37,6.37,0,0,1-2-.28,3.38,3.38,0,0,1-1.45-.91,4,4,0,0,1-.88-1.66,9.29,9.29,0,0,1-.3-2.56V304h-2.63v-2Z" transform="translate(-221.96 -6.63)"/><path class="cls-7" d="M687.54,302h5v15.91a4.12,4.12,0,0,0,.61,2.57,2.2,2.2,0,0,0,1.81.75,4.35,4.35,0,0,0,1.6-.3,7.08,7.08,0,0,0,1.69-1l1.08,1.64a6.6,6.6,0,0,1-1,.75,7.75,7.75,0,0,1-1.17.55,7.89,7.89,0,0,1-1.2.34,5.78,5.78,0,0,1-1.11.12,6.37,6.37,0,0,1-2-.28,3.38,3.38,0,0,1-1.45-.91,4,4,0,0,1-.88-1.66,9.29,9.29,0,0,1-.3-2.56V304h-2.63v-2Z" transform="translate(-221.96 -6.63)"/><path class="cls-7" d="M705.06,323v-2h5.2V310h-5.2v-2h7.57V321h5.08v2H705.06Zm4.37-19.2a2,2,0,0,1,.54-1.39,1.79,1.79,0,0,1,1.38-.58,2,2,0,0,1,1.45.58,1.9,1.9,0,0,1,.58,1.39,1.72,1.72,0,0,1-.58,1.32,2.06,2.06,0,0,1-1.45.54,1.87,1.87,0,0,1-1.38-.54A1.79,1.79,0,0,1,709.42,303.76Z" transform="translate(-221.96 -6.63)"/><path class="cls-7" d="M735.53,323.71a5.38,5.38,0,0,1-.54,2.47,4.85,4.85,0,0,1-1.48,1.75,6.68,6.68,0,0,1-2.2,1,10.28,10.28,0,0,1-2.72.34,11.75,11.75,0,0,1-3.08-.36,9.17,9.17,0,0,1-2.27-.93l1.13-2.12a3.4,3.4,0,0,0,.7.46,7.34,7.34,0,0,0,1,.42,8.43,8.43,0,0,0,1.21.31,6.9,6.9,0,0,0,1.27.12,8.5,8.5,0,0,0,2.19-.24,3.26,3.26,0,0,0,1.42-.75,2.9,2.9,0,0,0,.78-1.32,7,7,0,0,0,.24-2v-1.67H733a4.64,4.64,0,0,1-1.76,1.53,6.19,6.19,0,0,1-2.77.54q-3.4,0-5-1.9t-1.6-5.91a7.67,7.67,0,0,1,2-5.79q2-2,6-2a16.8,16.8,0,0,1,3.15.25,16.3,16.3,0,0,1,2.38.64v15Zm-6.67-2.39a4.09,4.09,0,0,0,2.85-.94,5.27,5.27,0,0,0,1.46-2.89V310.4a8.61,8.61,0,0,0-3.65-.63,5,5,0,0,0-3.74,1.41,6,6,0,0,0-1.37,4.31,10.71,10.71,0,0,0,.24,2.35,5.38,5.38,0,0,0,.76,1.84,3.57,3.57,0,0,0,1.37,1.21A4.56,4.56,0,0,0,728.86,321.32Z" transform="translate(-221.96 -6.63)"/><path class="cls-7" d="M753.62,321.08a7.55,7.55,0,0,1-1.27.9,9.31,9.31,0,0,1-1.6.72,11.64,11.64,0,0,1-1.81.46,11,11,0,0,1-1.9.16,8.45,8.45,0,0,1-3.17-.55,6.11,6.11,0,0,1-2.3-1.58,6.9,6.9,0,0,1-1.4-2.47,10.16,10.16,0,0,1-.48-3.23,9.93,9.93,0,0,1,.52-3.35,6.48,6.48,0,0,1,1.51-2.45,6.57,6.57,0,0,1,2.39-1.51,9,9,0,0,1,3.14-.52,9.56,9.56,0,0,1,2.48.33,4.91,4.91,0,0,1,2.17,1.24,5.93,5.93,0,0,1,1.45,2.51,11.67,11.67,0,0,1,.36,4.14H742.17a5.2,5.2,0,0,0,1.45,4,5.48,5.48,0,0,0,3.86,1.33,6.64,6.64,0,0,0,1.6-.19,13.19,13.19,0,0,0,1.51-.46,8,8,0,0,0,1.27-.6,5.6,5.6,0,0,0,.85-0.6Zm-6.3-11.45a8,8,0,0,0-1.86.21,4.25,4.25,0,0,0-1.55.7,3.87,3.87,0,0,0-1.1,1.29,5.17,5.17,0,0,0-.55,2h9.27a4.59,4.59,0,0,0-1.27-3.06A4,4,0,0,0,747.33,309.62Z" transform="translate(-221.96 -6.63)"/><path class="cls-7" d="M758.53,313.24c0-.18,0-0.41,0-0.7s0-.59,0-0.9,0-.61-0.08-0.91-0.06-.56-0.1-0.78h-2V308h4l0.27,2.42h0.15a5,5,0,0,1,.79-1,6.19,6.19,0,0,1,1.15-.9,6.11,6.11,0,0,1,1.46-.64,6,6,0,0,1,1.71-.24,9,9,0,0,1,2.44.3A3.72,3.72,0,0,1,770,309a4.92,4.92,0,0,1,1.06,2.06,12.69,12.69,0,0,1,.36,3.3V323h-2.36v-8.12a7,7,0,0,0-.8-3.73,3.2,3.2,0,0,0-2.92-1.25,3.77,3.77,0,0,0-1.5.31,5.16,5.16,0,0,0-1.33.82,5.64,5.64,0,0,0-1,1.18,4.94,4.94,0,0,0-.65,1.42V323h-2.3v-9.72Z" transform="translate(-221.96 -6.63)"/><path class="cls-7" d="M786.81,310.31a11.91,11.91,0,0,0-1.48-.4,7.72,7.72,0,0,0-1.57-.16,6.09,6.09,0,0,0-4.37,1.38A5.83,5.83,0,0,0,778,315.5a6.24,6.24,0,0,0,.42,2.35,4.79,4.79,0,0,0,1.2,1.75,5.34,5.34,0,0,0,1.87,1.11,7.1,7.1,0,0,0,2.41.39,7.91,7.91,0,0,0,2.74-.49,6.94,6.94,0,0,0,2.23-1.28l1,1.73a8.59,8.59,0,0,1-1,.75,10.38,10.38,0,0,1-1.45.73,10.12,10.12,0,0,1-1.83.55,10.59,10.59,0,0,1-2.17.21,9.75,9.75,0,0,1-3.42-.55,6.51,6.51,0,0,1-2.47-1.58,6.77,6.77,0,0,1-1.5-2.48,9.66,9.66,0,0,1-.51-3.21,9.93,9.93,0,0,1,.52-3.35,6.51,6.51,0,0,1,1.51-2.45,6.59,6.59,0,0,1,2.39-1.51,9,9,0,0,1,3.14-.52,13.74,13.74,0,0,1,3.6.39,13.31,13.31,0,0,1,2.35.87l0,0.09v4.16h-2.15v-2.84Z" transform="translate(-221.96 -6.63)"/><path class="cls-7" d="M807.45,321.08a7.55,7.55,0,0,1-1.27.9,9.31,9.31,0,0,1-1.6.72,11.64,11.64,0,0,1-1.81.46,11,11,0,0,1-1.9.16,8.45,8.45,0,0,1-3.17-.55,6.11,6.11,0,0,1-2.3-1.58,6.9,6.9,0,0,1-1.4-2.47,10.16,10.16,0,0,1-.48-3.23,9.93,9.93,0,0,1,.52-3.35,6.48,6.48,0,0,1,1.51-2.45,6.57,6.57,0,0,1,2.39-1.51,9,9,0,0,1,3.14-.52,9.56,9.56,0,0,1,2.48.33,4.91,4.91,0,0,1,2.17,1.24,5.93,5.93,0,0,1,1.45,2.51,11.67,11.67,0,0,1,.36,4.14H796a5.2,5.2,0,0,0,1.45,4,5.48,5.48,0,0,0,3.86,1.33,6.64,6.64,0,0,0,1.6-.19,13.19,13.19,0,0,0,1.51-.46,8,8,0,0,0,1.27-.6,5.6,5.6,0,0,0,.85-0.6Zm-6.3-11.45a8,8,0,0,0-1.86.21,4.25,4.25,0,0,0-1.55.7,3.87,3.87,0,0,0-1.1,1.29,5.17,5.17,0,0,0-.55,2h9.27a4.59,4.59,0,0,0-1.27-3.06A4,4,0,0,0,801.15,309.62Z" transform="translate(-221.96 -6.63)"/><path class="cls-7" d="M830.74,309.17a9.52,9.52,0,0,1,2.9-1.08,15.88,15.88,0,0,1,3.17-.33,5.65,5.65,0,0,1,2.5.48,4,4,0,0,1,1.53,1.24,4.39,4.39,0,0,1,.75,1.73,10.05,10.05,0,0,1,.19,2q0,1.14-.06,2.42t-0.09,2.57a21.75,21.75,0,0,0,.18,2.84h2V323h-3.95l-0.27-2.24h-0.15a7.38,7.38,0,0,1-.54.69,4.89,4.89,0,0,1-.94.82,6.1,6.1,0,0,1-1.42.7,5.91,5.91,0,0,1-2,.3,5.12,5.12,0,0,1-3.51-1.14,3.93,3.93,0,0,1-1.29-3.11,4.5,4.5,0,0,1,.67-2.54,4.25,4.25,0,0,1,1.93-1.55,8.89,8.89,0,0,1,3-.63,20.53,20.53,0,0,1,4,.24,10.7,10.7,0,0,0,0-2.29,3.15,3.15,0,0,0-.48-1.45,2,2,0,0,0-1-.76,5.34,5.34,0,0,0-1.67-.22,8.84,8.84,0,0,0-2.58.37q-1.23.37-2.19,0.76Zm4.43,12.05a4.41,4.41,0,0,0,1.55-.27,4.75,4.75,0,0,0,1.26-.69,4.5,4.5,0,0,0,.9-0.91,4.39,4.39,0,0,0,.54-0.94v-2.09a16.9,16.9,0,0,0-2.87-.27,8.05,8.05,0,0,0-2.27.28,3.17,3.17,0,0,0-1.5.88,2.24,2.24,0,0,0-.54,1.55,2.45,2.45,0,0,0,.67,1.72A3,3,0,0,0,835.17,321.23Z" transform="translate(-221.96 -6.63)"/><path class="cls-7" d="M848.23,313.24c0-.18,0-0.41,0-0.7s0-.59,0-0.9,0-.61-0.08-0.91S848,310.17,848,310h-2V308h4l0.27,2.42h0.15a5,5,0,0,1,.79-1,6.19,6.19,0,0,1,1.15-.9,6.11,6.11,0,0,1,1.46-.64,6,6,0,0,1,1.71-.24,9,9,0,0,1,2.44.3,3.72,3.72,0,0,1,1.76,1.06,4.92,4.92,0,0,1,1.06,2.06,12.69,12.69,0,0,1,.36,3.3V323h-2.36v-8.12a7,7,0,0,0-.8-3.73,3.2,3.2,0,0,0-2.92-1.25,3.77,3.77,0,0,0-1.5.31,5.16,5.16,0,0,0-1.33.82,5.64,5.64,0,0,0-1,1.18,4.94,4.94,0,0,0-.65,1.42V323h-2.3v-9.72Z" transform="translate(-221.96 -6.63)"/><path class="cls-7" d="M873.8,302h4.87v15.82q0,0.27,0,.67t0.07,0.85c0,0.3.06,0.59,0.11,0.88S879,320.8,879,321h2V323h-4l-0.3-2.3h-0.12a5.28,5.28,0,0,1-2,1.9,5.81,5.81,0,0,1-3,.76,6.12,6.12,0,0,1-5-1.9q-1.6-1.9-1.6-5.91a9.54,9.54,0,0,1,.54-3.33,6.44,6.44,0,0,1,1.53-2.42,6.66,6.66,0,0,1,2.4-1.48,9.14,9.14,0,0,1,3.13-.51c0.42,0,.79,0,1.12,0s0.63,0.05.91,0.09a6.26,6.26,0,0,1,.79.16l0.82,0.22V304H873.8v-2ZM872,321.32a4.12,4.12,0,0,0,2.86-.94,5.06,5.06,0,0,0,1.43-2.83v-6.94a4.61,4.61,0,0,0-1.47-.66,9.07,9.07,0,0,0-2.16-.21,5,5,0,0,0-3.75,1.39,6,6,0,0,0-1.37,4.38,11.1,11.1,0,0,0,.22,2.29,5.17,5.17,0,0,0,.74,1.84,3.67,3.67,0,0,0,1.39,1.23A4.56,4.56,0,0,0,872,321.32Z" transform="translate(-221.96 -6.63)"/><path class="cls-7" d="M597.26,338.12a26.28,26.28,0,0,1,2.61-.33q1.48-.12,2.7-0.12a11.08,11.08,0,0,1,2.61.3,6.06,6.06,0,0,1,2.18,1,5,5,0,0,1,1.51,1.79,5.85,5.85,0,0,1,.57,2.69,5.49,5.49,0,0,1-.4,2.17,6.12,6.12,0,0,1-1,1.61,6.3,6.3,0,0,1-2.28,1.69l5.53,9.93h-2.9l-4.94-9.21h-3.72v9.21h-2.48V338.12Zm5.38,1.7h-0.81c-0.28,0-.55,0-0.81,0l-0.73.06a3.12,3.12,0,0,0-.55.09v7.72h2.33a5.49,5.49,0,0,0,3.41-1,3.72,3.72,0,0,0,1.35-3.17,3.51,3.51,0,0,0-1.11-2.66A4.31,4.31,0,0,0,602.64,339.82Z" transform="translate(-221.96 -6.63)"/><path class="cls-7" d="M613.92,351.37a8.28,8.28,0,0,1,1.88-5.73,6.84,6.84,0,0,1,5.38-2.11,7.86,7.86,0,0,1,3.24.61,6.37,6.37,0,0,1,2.26,1.66,6.77,6.77,0,0,1,1.33,2.48,10.65,10.65,0,0,1,.43,3.08,10.34,10.34,0,0,1-.48,3.24,6.75,6.75,0,0,1-1.41,2.47,6.2,6.2,0,0,1-2.29,1.57,8.17,8.17,0,0,1-3.1.55,7.89,7.89,0,0,1-3.23-.61,6.33,6.33,0,0,1-2.27-1.66,6.76,6.76,0,0,1-1.33-2.48A10.6,10.6,0,0,1,613.92,351.37Zm2.48,0a8.84,8.84,0,0,0,.25,2.09,5.73,5.73,0,0,0,.82,1.88,4.26,4.26,0,0,0,1.48,1.35,4.48,4.48,0,0,0,2.22.51,4.37,4.37,0,0,0,3.59-1.48,6.76,6.76,0,0,0,1.21-4.35,8.79,8.79,0,0,0-.25-2.11,5.6,5.6,0,0,0-.83-1.87,4.42,4.42,0,0,0-1.49-1.35,4.5,4.5,0,0,0-2.22-.51,4.34,4.34,0,0,0-3.58,1.47A6.8,6.8,0,0,0,616.4,351.37Z" transform="translate(-221.96 -6.63)"/><path class="cls-7" d="M630.21,337.91H635v7.69h0.15a5.11,5.11,0,0,1,2-1.53,6.55,6.55,0,0,1,2.66-.54q6.58,0,6.58,7.6a7.83,7.83,0,0,1-2.12,5.91,8.35,8.35,0,0,1-6,2,14.36,14.36,0,0,1-3.35-.36,6.71,6.71,0,0,1-2.18-.84v-18h-2.48v-2Zm9.3,7.63a4.12,4.12,0,0,0-2.9,1,5.91,5.91,0,0,0-1.61,2.87v6.88a6.59,6.59,0,0,0,1.64.57,9.36,9.36,0,0,0,2,.21,6.45,6.45,0,0,0,2.17-.34,4.12,4.12,0,0,0,1.66-1.08,4.94,4.94,0,0,0,1.06-1.87,8.67,8.67,0,0,0,.37-2.69,9.4,9.4,0,0,0-.24-2.15,5.25,5.25,0,0,0-.76-1.78,3.67,3.67,0,0,0-1.36-1.2A4.38,4.38,0,0,0,639.51,345.54Z" transform="translate(-221.96 -6.63)"/><path class="cls-7" d="M649.8,351.37a8.28,8.28,0,0,1,1.88-5.73,6.84,6.84,0,0,1,5.38-2.11,7.86,7.86,0,0,1,3.24.61,6.37,6.37,0,0,1,2.26,1.66,6.77,6.77,0,0,1,1.33,2.48,10.65,10.65,0,0,1,.43,3.08,10.34,10.34,0,0,1-.48,3.24,6.75,6.75,0,0,1-1.41,2.47,6.2,6.2,0,0,1-2.29,1.57,8.17,8.17,0,0,1-3.1.55,7.89,7.89,0,0,1-3.23-.61,6.33,6.33,0,0,1-2.27-1.66,6.76,6.76,0,0,1-1.33-2.48A10.6,10.6,0,0,1,649.8,351.37Zm2.48,0a8.84,8.84,0,0,0,.25,2.09,5.73,5.73,0,0,0,.82,1.88,4.26,4.26,0,0,0,1.48,1.35,4.48,4.48,0,0,0,2.22.51,4.37,4.37,0,0,0,3.59-1.48,6.76,6.76,0,0,0,1.21-4.35,8.79,8.79,0,0,0-.25-2.11,5.6,5.6,0,0,0-.83-1.87,4.42,4.42,0,0,0-1.49-1.35,4.5,4.5,0,0,0-2.22-.51,4.34,4.34,0,0,0-3.58,1.47A6.8,6.8,0,0,0,652.28,351.37Z" transform="translate(-221.96 -6.63)"/><path class="cls-7" d="M667,343.89h3.56v-3l2.36-.66v3.62h8v2h-8V353a4.37,4.37,0,0,0,1.06,3.23,4.12,4.12,0,0,0,3,1,5.1,5.1,0,0,0,2.34-.51,12.65,12.65,0,0,0,1.8-1.11l0.77,1.76a8.41,8.41,0,0,1-2.5,1.35,8.93,8.93,0,0,1-3,.51,7.29,7.29,0,0,1-2.26-.34,5.18,5.18,0,0,1-1.87-1.06A5.08,5.08,0,0,1,671,356a6.78,6.78,0,0,1-.48-2.68V345.9H667v-2Z" transform="translate(-221.96 -6.63)"/><path class="cls-7" d="M687.12,358.84v-2h5.2V345.9h-5.2v-2h7.57v12.95h5.08v2H687.12Zm4.37-19.2a2,2,0,0,1,.54-1.39,1.79,1.79,0,0,1,1.38-.58,2,2,0,0,1,1.45.58,1.9,1.9,0,0,1,.58,1.39,1.72,1.72,0,0,1-.58,1.32,2.06,2.06,0,0,1-1.45.54A1.87,1.87,0,0,1,692,341,1.79,1.79,0,0,1,691.48,339.65Z" transform="translate(-221.96 -6.63)"/><path class="cls-7" d="M715,346.19a11.91,11.91,0,0,0-1.48-.4,7.72,7.72,0,0,0-1.57-.16,6.09,6.09,0,0,0-4.37,1.38,5.83,5.83,0,0,0-1.44,4.38,6.24,6.24,0,0,0,.42,2.35,4.79,4.79,0,0,0,1.2,1.75,5.34,5.34,0,0,0,1.87,1.11,7.1,7.1,0,0,0,2.41.39,7.91,7.91,0,0,0,2.74-.49,6.94,6.94,0,0,0,2.23-1.28l1,1.73a8.59,8.59,0,0,1-1,.75,10.38,10.38,0,0,1-1.45.73,10.12,10.12,0,0,1-1.83.55,10.59,10.59,0,0,1-2.17.21,9.75,9.75,0,0,1-3.42-.55,6.51,6.51,0,0,1-2.47-1.58,6.77,6.77,0,0,1-1.5-2.48,9.66,9.66,0,0,1-.51-3.21,9.93,9.93,0,0,1,.52-3.35,6.51,6.51,0,0,1,1.51-2.45,6.59,6.59,0,0,1,2.39-1.51,9,9,0,0,1,3.14-.52,13.74,13.74,0,0,1,3.6.39,13.31,13.31,0,0,1,2.35.87l0,0.09V349H715v-2.84Z" transform="translate(-221.96 -6.63)"/><path class="cls-7" d="M732.93,354.81a1.7,1.7,0,0,0-.75-1.48,6.1,6.1,0,0,0-1.85-.84q-1.1-.31-2.4-0.58a13.69,13.69,0,0,1-2.4-.72,5.35,5.35,0,0,1-1.85-1.21,2.92,2.92,0,0,1-.75-2.14,3.66,3.66,0,0,1,.49-1.94,4.17,4.17,0,0,1,1.3-1.33,6,6,0,0,1,1.88-.78,9.74,9.74,0,0,1,2.24-.25,11.05,11.05,0,0,1,3.6.52,11.83,11.83,0,0,1,2.41,1.09l-1,1.88q-1-.54-2.13-1a7.3,7.3,0,0,0-2.88-.49,6.3,6.3,0,0,0-1.3.13,4.58,4.58,0,0,0-1.16.4,2.31,2.31,0,0,0-.83.7,1.76,1.76,0,0,0-.31,1.06A1.31,1.31,0,0,0,726,349a7.67,7.67,0,0,0,1.85.7q1.1,0.28,2.4.54a11.61,11.61,0,0,1,2.4.73,5.4,5.4,0,0,1,1.85,1.29,3.09,3.09,0,0,1,.75,2.18,4.23,4.23,0,0,1-1.63,3.41,7.55,7.55,0,0,1-4.89,1.35,10.51,10.51,0,0,1-1.94-.18,11.71,11.71,0,0,1-1.79-.48,10.59,10.59,0,0,1-1.52-.67,6.33,6.33,0,0,1-1.14-.76l1.19-1.94a5.33,5.33,0,0,0,1,.73,8.95,8.95,0,0,0,2.85,1.15,7.72,7.72,0,0,0,1.66.18,8,8,0,0,0,1.51-.13,4.39,4.39,0,0,0,1.24-.42,2.3,2.3,0,0,0,.85-0.75A2,2,0,0,0,732.93,354.81Z" transform="translate(-221.96 -6.63)"/><path class="cls-7" d="M758.44,337.91h2.48v18.72h8.46v-5.2h2.21v7.42H758.44V337.91Z" transform="translate(-221.96 -6.63)"/><path class="cls-7" d="M776.92,345.06a9.52,9.52,0,0,1,2.9-1.08,15.88,15.88,0,0,1,3.17-.33,5.65,5.65,0,0,1,2.5.48,4,4,0,0,1,1.53,1.24,4.39,4.39,0,0,1,.75,1.73,10.05,10.05,0,0,1,.19,2q0,1.14-.06,2.42t-0.09,2.57a21.75,21.75,0,0,0,.18,2.84h2v1.94H786l-0.27-2.24h-0.15a7.38,7.38,0,0,1-.54.69,4.89,4.89,0,0,1-.94.82,6.1,6.1,0,0,1-1.42.7,5.91,5.91,0,0,1-2,.3,5.12,5.12,0,0,1-3.51-1.14,3.93,3.93,0,0,1-1.29-3.11,4.5,4.5,0,0,1,.67-2.54,4.25,4.25,0,0,1,1.93-1.55,8.89,8.89,0,0,1,3-.63,20.53,20.53,0,0,1,4,.24,10.7,10.7,0,0,0,0-2.29,3.15,3.15,0,0,0-.48-1.45,2,2,0,0,0-1-.76,5.34,5.34,0,0,0-1.67-.22,8.84,8.84,0,0,0-2.58.37q-1.23.37-2.19,0.76Zm4.43,12.05a4.41,4.41,0,0,0,1.55-.27,4.75,4.75,0,0,0,1.26-.69,4.5,4.5,0,0,0,.9-0.91,4.39,4.39,0,0,0,.54-0.94V352.2a16.9,16.9,0,0,0-2.87-.27,8.05,8.05,0,0,0-2.27.28,3.17,3.17,0,0,0-1.5.88,2.24,2.24,0,0,0-.54,1.55,2.45,2.45,0,0,0,.67,1.72A3,3,0,0,0,781.34,357.11Z" transform="translate(-221.96 -6.63)"/><path class="cls-7" d="M791.69,337.91h4.78v7.69h0.15a5.11,5.11,0,0,1,2-1.53,6.55,6.55,0,0,1,2.66-.54q6.58,0,6.58,7.6a7.83,7.83,0,0,1-2.12,5.91,8.35,8.35,0,0,1-6,2,14.36,14.36,0,0,1-3.35-.36,6.71,6.71,0,0,1-2.18-.84v-18h-2.48v-2Zm9.3,7.63a4.12,4.12,0,0,0-2.9,1,5.91,5.91,0,0,0-1.61,2.87v6.88a6.59,6.59,0,0,0,1.64.57,9.36,9.36,0,0,0,2,.21,6.45,6.45,0,0,0,2.17-.34,4.12,4.12,0,0,0,1.66-1.08,4.94,4.94,0,0,0,1.06-1.87,8.67,8.67,0,0,0,.37-2.69,9.4,9.4,0,0,0-.24-2.15,5.25,5.25,0,0,0-.76-1.78A3.67,3.67,0,0,0,803,346,4.38,4.38,0,0,0,801,345.54Z" transform="translate(-221.96 -6.63)"/><path class="cls-7" d="M811.27,351.37a8.28,8.28,0,0,1,1.88-5.73,6.84,6.84,0,0,1,5.38-2.11,7.86,7.86,0,0,1,3.24.61,6.37,6.37,0,0,1,2.26,1.66,6.77,6.77,0,0,1,1.33,2.48,10.65,10.65,0,0,1,.43,3.08,10.34,10.34,0,0,1-.48,3.24,6.75,6.75,0,0,1-1.41,2.47,6.2,6.2,0,0,1-2.29,1.57,8.17,8.17,0,0,1-3.1.55,7.89,7.89,0,0,1-3.23-.61,6.33,6.33,0,0,1-2.27-1.66,6.76,6.76,0,0,1-1.33-2.48A10.6,10.6,0,0,1,811.27,351.37Zm2.48,0a8.84,8.84,0,0,0,.25,2.09,5.73,5.73,0,0,0,.82,1.88,4.26,4.26,0,0,0,1.48,1.35,4.48,4.48,0,0,0,2.22.51,4.37,4.37,0,0,0,3.59-1.48,6.76,6.76,0,0,0,1.21-4.35,8.79,8.79,0,0,0-.25-2.11,5.6,5.6,0,0,0-.83-1.87,4.42,4.42,0,0,0-1.49-1.35,4.5,4.5,0,0,0-2.22-.51,4.34,4.34,0,0,0-3.58,1.47A6.8,6.8,0,0,0,813.76,351.37Z" transform="translate(-221.96 -6.63)"/><path class="cls-7" d="M829.48,358.84v-2h4V345.9h-4v-2h5.59l0.48,1.94h0.15a10.77,10.77,0,0,1,2.27-1.58,6.36,6.36,0,0,1,3-.66,3,3,0,0,1,1.63.39,2.59,2.59,0,0,1,1,1.14,6,6,0,0,1,.46,1.81,21.92,21.92,0,0,1,.12,2.41l-2.09,0a7.68,7.68,0,0,0-.37-2.79,1.36,1.36,0,0,0-1.36-.89,4.91,4.91,0,0,0-1.67.27,5.45,5.45,0,0,0-1.3.66,7,7,0,0,0-.94.78,4.66,4.66,0,0,0-.57.66v8.8h5.74v2H829.48Z" transform="translate(-221.96 -6.63)"/><path class="cls-7" d="M848.68,345.06a9.52,9.52,0,0,1,2.9-1.08,15.88,15.88,0,0,1,3.17-.33,5.65,5.65,0,0,1,2.5.48,4,4,0,0,1,1.53,1.24,4.39,4.39,0,0,1,.75,1.73,10.05,10.05,0,0,1,.19,2q0,1.14-.06,2.42t-0.09,2.57a21.75,21.75,0,0,0,.18,2.84h2v1.94H857.8l-0.27-2.24h-0.15a7.38,7.38,0,0,1-.54.69,4.89,4.89,0,0,1-.94.82,6.1,6.1,0,0,1-1.42.7,5.91,5.91,0,0,1-2,.3A5.12,5.12,0,0,1,849,358a3.93,3.93,0,0,1-1.29-3.11,4.5,4.5,0,0,1,.67-2.54,4.25,4.25,0,0,1,1.93-1.55,8.89,8.89,0,0,1,3-.63,20.53,20.53,0,0,1,4,.24,10.7,10.7,0,0,0,0-2.29,3.15,3.15,0,0,0-.48-1.45,2,2,0,0,0-1-.76,5.34,5.34,0,0,0-1.67-.22,8.84,8.84,0,0,0-2.58.37q-1.23.37-2.19,0.76Zm4.43,12.05a4.41,4.41,0,0,0,1.55-.27,4.75,4.75,0,0,0,1.26-.69,4.5,4.5,0,0,0,.9-0.91,4.39,4.39,0,0,0,.54-0.94V352.2a16.9,16.9,0,0,0-2.87-.27,8.05,8.05,0,0,0-2.27.28,3.17,3.17,0,0,0-1.5.88,2.24,2.24,0,0,0-.54,1.55,2.45,2.45,0,0,0,.67,1.72A3,3,0,0,0,853.11,357.11Z" transform="translate(-221.96 -6.63)"/><path class="cls-7" d="M864.32,343.89h3.56v-3l2.36-.66v3.62h8v2h-8V353a4.37,4.37,0,0,0,1.06,3.23,4.12,4.12,0,0,0,3,1,5.1,5.1,0,0,0,2.34-.51,12.65,12.65,0,0,0,1.8-1.11l0.77,1.76a8.41,8.41,0,0,1-2.5,1.35,8.93,8.93,0,0,1-3,.51,7.29,7.29,0,0,1-2.26-.34,5.18,5.18,0,0,1-1.87-1.06,5.08,5.08,0,0,1-1.28-1.84,6.78,6.78,0,0,1-.48-2.68V345.9h-3.56v-2Z" transform="translate(-221.96 -6.63)"/><path class="cls-7" d="M883,351.37a8.28,8.28,0,0,1,1.88-5.73,6.84,6.84,0,0,1,5.38-2.11,7.86,7.86,0,0,1,3.24.61,6.37,6.37,0,0,1,2.26,1.66,6.77,6.77,0,0,1,1.33,2.48,10.65,10.65,0,0,1,.43,3.08,10.34,10.34,0,0,1-.48,3.24,6.75,6.75,0,0,1-1.41,2.47,6.2,6.2,0,0,1-2.29,1.57,8.17,8.17,0,0,1-3.1.55,7.89,7.89,0,0,1-3.23-.61,6.33,6.33,0,0,1-2.27-1.66,6.76,6.76,0,0,1-1.33-2.48A10.6,10.6,0,0,1,883,351.37Zm2.48,0a8.84,8.84,0,0,0,.25,2.09,5.73,5.73,0,0,0,.82,1.88,4.26,4.26,0,0,0,1.48,1.35,4.48,4.48,0,0,0,2.22.51,4.37,4.37,0,0,0,3.59-1.48,6.76,6.76,0,0,0,1.21-4.35,8.79,8.79,0,0,0-.25-2.11,5.6,5.6,0,0,0-.83-1.87,4.42,4.42,0,0,0-1.49-1.35,4.5,4.5,0,0,0-2.22-.51,4.34,4.34,0,0,0-3.58,1.47A6.8,6.8,0,0,0,885.52,351.37Z" transform="translate(-221.96 -6.63)"/><path class="cls-7" d="M901.25,358.84v-2h4V345.9h-4v-2h5.59l0.48,1.94h0.15a10.77,10.77,0,0,1,2.27-1.58,6.36,6.36,0,0,1,3-.66,3,3,0,0,1,1.63.39,2.59,2.59,0,0,1,1,1.14,6,6,0,0,1,.46,1.81,21.92,21.92,0,0,1,.12,2.41l-2.09,0a7.68,7.68,0,0,0-.37-2.79,1.36,1.36,0,0,0-1.36-.89,4.91,4.91,0,0,0-1.67.27,5.45,5.45,0,0,0-1.3.66,7,7,0,0,0-.94.78,4.66,4.66,0,0,0-.57.66v8.8h5.74v2H901.25Z" transform="translate(-221.96 -6.63)"/><path class="cls-7" d="M926.52,356.54h1.14l3.71-12.65h2.42l-4.16,13.43q-0.33,1-.67,2.38a11.09,11.09,0,0,1-1,2.5,6,6,0,0,1-1.71,2,4.56,4.56,0,0,1-2.81.81,4.06,4.06,0,0,1-.82-0.09,8.22,8.22,0,0,1-.85-0.22,5.6,5.6,0,0,1-.78-0.31,2.09,2.09,0,0,1-.54-0.36l0.84-2.15a2.38,2.38,0,0,0,.49.3,4.32,4.32,0,0,0,.69.25l0.73,0.18a3.11,3.11,0,0,0,.6.07q2.24,0,3.05-3.8h-2l-6.28-15h2.69Z" transform="translate(-221.96 -6.63)"/><path class="cls-7" d="M640.52,231.58H616.26l-4,8.93H593.74l28.41-61.41h12.38l29.53,61.41H644.47ZM623.16,216.4l-0.61,1.39h11.77l-0.41-1-5.48-13.18Z" transform="translate(-221.96 -6.63)"/><path class="cls-7" d="M709.91,193.33H698.14v33.92h11.77v13.27H669V227.24h11.77V193.33H669V179.8h40.9v13.53Z" transform="translate(-221.96 -6.63)"/><path class="cls-7" d="M734,220v20.56H716.7V179.8h27.6c28.21,0,32.37,29.75,10.55,38.69l15.22,19.26v2.78H751.61L736.8,220H734Zm0-13.44h9.94c10.45,0,10.55-12.49,0-12.49H734v12.49Z" transform="translate(-221.96 -6.63)"/><path class="cls-7" d="M819,226.2h29.83v14.31H801.62V179.8H819v46.4Z" transform="translate(-221.96 -6.63)"/><path class="cls-7" d="M900.15,231.58H875.9l-4,8.93H853.37l28.41-61.41h12.38l29.53,61.41H904.11ZM882.8,216.4l-0.61,1.39H894l-0.41-1-5.48-13.18Z" transform="translate(-221.96 -6.63)"/><path class="cls-7" d="M961.23,179.8c17.25,0,25.57,19.17,12,27.41,7.51,3.3,10.55,8.59,10.55,13.7,0,9.8-7.81,19.6-22.73,19.6H928.35V179.8h32.88ZM945.5,201.74h13.09c6,0,5.78-8.5.2-8.5H945.5v8.5Zm0,24.72H961c7.31,0,7.31-11,0-11H945.5v11Z" transform="translate(-221.96 -6.63)"/><rect class="cls-2" x="854.09" y="272.58" width="110.68" height="110.68"/><polygon class="cls-8" points="939.17 295.21 930.24 295.21 930.24 286.29 918.35 286.29 918.35 295.21 909.43 295.21 909.43 307.11 918.35 307.11 918.35 316.03 930.24 316.03 930.24 307.11 939.17 307.11 939.17 295.21"/><path class="cls-8" d="M1140.31,331.58c0,7.17-.84,7.86-2.68,9.35-1.38,1.12-4.13,1.32-7.32,1.54-1.77.13-3.79,0.28-5.84,0.61a17.82,17.82,0,0,0-5,1.64V315.11a11.9,11.9,0,1,0-11.9,0V354a11.89,11.89,0,1,0,15.06,2.64,9.64,9.64,0,0,1,3.75-1.8c1.51-.24,3.09-0.35,4.76-0.48,4.54-.32,9.68-0.69,14-4.18,5.74-4.67,7-9.68,7.06-17.64h0v-0.95h-11.9Zm-26.76-32.71a5.95,5.95,0,1,1-5.95,5.95A6,6,0,0,1,1113.54,298.87Zm0,71.37a5.95,5.95,0,1,1,5.95-5.95A6,6,0,0,1,1113.54,370.24Z" transform="translate(-221.96 -6.63)"/><rect class="cls-2" x="794.84" y="4" width="148.58" height="148.58"/><rect class="cls-1" x="813.42" y="22.57" width="9.29" height="111.44"/><rect class="cls-1" x="813.42" y="22.57" width="111.44" height="9.29"/><rect class="cls-1" x="915.57" y="22.57" width="9.29" height="111.44"/><rect class="cls-1" x="813.42" y="124.72" width="111.44" height="9.29"/><rect class="cls-1" x="822.7" y="31.86" width="18.57" height="18.57"/><rect class="cls-1" x="841.28" y="50.43" width="18.57" height="18.57"/><rect class="cls-1" x="822.7" y="50.43" width="18.57" height="18.57"/><rect class="cls-1" x="841.28" y="69.01" width="18.57" height="18.57"/><rect class="cls-1" x="859.85" y="50.43" width="18.57" height="18.57"/><rect class="cls-1" x="878.42" y="69.01" width="18.57" height="18.57"/><rect class="cls-1" x="897" y="50.43" width="18.57" height="18.57"/><rect class="cls-1" x="859.85" y="69.01" width="18.57" height="18.57"/><rect class="cls-1" x="822.7" y="87.58" width="18.57" height="18.57"/><rect class="cls-1" x="841.28" y="106.15" width="18.57" height="18.57"/><rect class="cls-1" x="859.85" y="87.58" width="18.57" height="18.57"/><rect class="cls-1" x="897" y="106.15" width="18.57" height="18.57"/><rect class="cls-2" x="4" y="60.05" width="131.07" height="163.84"/><line class="cls-9" x1="20.38" y1="80.52" x2="85.92" y2="80.52"/><line class="cls-9" x1="20.38" y1="101" x2="85.92" y2="101"/><line class="cls-9" x1="20.38" y1="121.48" x2="118.69" y2="121.48"/><line class="cls-9" x1="20.38" y1="141.96" x2="118.69" y2="141.96"/><line class="cls-9" x1="20.38" y1="162.44" x2="118.69" y2="162.44"/><line class="cls-9" x1="20.38" y1="182.92" x2="118.69" y2="182.92"/><line class="cls-9" x1="20.38" y1="203.4" x2="118.69" y2="203.4"/><path class="cls-1" d="M326.26,71.5L352.2,97.44H326.26V71.5m-2-4.83V99.44H357L324.26,66.68h0Z" transform="translate(-221.96 -6.63)"/></svg>