<?xml version="1.0" encoding="utf-8"?>
<!-- Generator: Adobe Illustrator 19.2.1, SVG Export Plug-In . SVG Version: 6.00 Build 0)  -->
<svg version="1.1" id="Слой_1" xmlns="http://www.w3.org/2000/svg" xmlns:xlink="http://www.w3.org/1999/xlink" x="0px" y="0px"
	 viewBox="0 0 377.9 377.9" style="enable-background:new 0 0 377.9 377.9;" xml:space="preserve">
<style type="text/css">
	.st0{fill:none;stroke:#004E9B;stroke-width:20;stroke-miterlimit:10;}
	.st1{fill:#004E9B;}
</style>
<title>vk_site</title>
<rect x="10" y="10" class="st0" width="357.9" height="357.9"/>
<path class="st1" d="M188.9,83.6c34.3,0,38.4,0.1,51.9,0.7c12.5,0.6,19.3,2.7,23.9,4.4c6,2.3,10.3,5.1,14.8,9.6
	c4.5,4.5,7.3,8.8,9.6,14.8c1.8,4.5,3.9,11.3,4.4,23.9c0.6,13.6,0.7,17.6,0.7,51.9s-0.1,38.4-0.7,51.9c-0.6,12.5-2.7,19.3-4.4,23.9
	c-2.3,6-5.1,10.3-9.6,14.8c-4.5,4.5-8.8,7.3-14.8,9.6c-4.5,1.8-11.3,3.9-23.9,4.4c-13.6,0.6-17.6,0.7-51.9,0.7s-38.4-0.1-51.9-0.7
	c-12.5-0.6-19.3-2.7-23.9-4.4c-6-2.3-10.3-5.1-14.8-9.6c-4.5-4.5-7.3-8.8-9.6-14.8c-1.8-4.5-3.9-11.3-4.4-23.9
	c-0.6-13.6-0.7-17.6-0.7-51.9s0.1-38.4,0.7-51.9c0.6-12.5,2.7-19.3,4.4-23.9c2.3-6,5.1-10.3,9.6-14.8c4.5-4.5,8.8-7.3,14.8-9.6
	c4.5-1.8,11.3-3.9,23.9-4.4C150.6,83.7,154.6,83.6,188.9,83.6 M188.9,60.4c-34.9,0-39.3,0.1-53,0.8c-13.7,0.6-23,2.8-31.2,6
	C96.3,70.4,89.1,74.8,82,82c-7.1,7.1-11.5,14.3-14.8,22.8c-3.2,8.2-5.3,17.5-6,31.2c-0.6,13.7-0.8,18.1-0.8,53
	c0,34.9,0.1,39.3,0.8,53c0.6,13.7,2.8,23,6,31.2c3.3,8.5,7.7,15.6,14.8,22.8c7.1,7.1,14.3,11.5,22.8,14.8c8.2,3.2,17.5,5.3,31.2,6
	c13.7,0.6,18.1,0.8,53,0.8s39.3-0.1,53-0.8c13.7-0.6,23-2.8,31.2-6c8.5-3.3,15.6-7.7,22.8-14.8c7.1-7.1,11.5-14.3,14.8-22.8
	c3.2-8.2,5.3-17.5,6-31.2c0.6-13.7,0.8-18.1,0.8-53s-0.1-39.3-0.8-53c-0.6-13.7-2.8-23-6-31.2c-3.3-8.5-7.7-15.6-14.8-22.8
	c-7.1-7.1-14.3-11.5-22.8-14.8c-8.2-3.2-17.5-5.3-31.2-6C228.2,60.6,223.9,60.4,188.9,60.4L188.9,60.4z M188.9,122.9
	c-36.5,0-66,29.5-66,66s29.5,66,66,66s66-29.5,66-66S225.4,122.9,188.9,122.9z M188.9,231.8c-23.7,0-42.8-19.2-42.8-42.8
	c0-23.7,19.2-42.8,42.8-42.8c23.7,0,42.8,19.2,42.8,42.8C231.8,212.6,212.6,231.8,188.9,231.8z M257.6,104.9
	c-8.5,0-15.4,6.9-15.4,15.4s6.9,15.4,15.4,15.4c8.5,0,15.4-6.9,15.4-15.4S266.1,104.9,257.6,104.9z"/>
</svg>
