<svg id="Слой_1" data-name="Слой 1" xmlns="http://www.w3.org/2000/svg" viewBox="0 0 377.89 377.89"><defs><style>.cls-1{fill:none;stroke:#004e9b;stroke-miterlimit:10;stroke-width:20px;}.cls-2{fill:#004e9b;}</style></defs><title>tlg_site</title><rect class="cls-1" x="10" y="10" width="357.89" height="357.89"/><path class="cls-2" d="M352.1,516.67a23,23,0,0,1-9.23-2.07,7.19,7.19,0,0,1-1.49-.88l-74.26-56.93L241,444.15l-45.38-15.28-0.11,0c-1.14-.41-11.22-4.24-12.41-13.78-1-8.2,6.08-13.72,12.55-16l181.84-71.33c3-1.29,12.47-4.77,19.27-.33,2.08,1.36,5.57,4.63,5.57,11.24a7.17,7.17,0,0,1-.14,1.39L369.74,503.55a7.16,7.16,0,0,1-.37,1.26,20.21,20.21,0,0,1-10.43,10.54,17.92,17.92,0,0,1-6.83,1.32m-2.79-14.86a5.86,5.86,0,0,0,4.2.33,5.63,5.63,0,0,0,2.4-2.28L387.7,339.59a19.94,19.94,0,0,0-4.63,1.29l-0.26.11L200.7,412.43l-0.3.11a12.2,12.2,0,0,0-2.6,1.35,9.28,9.28,0,0,0,2.46,1.49L246,430.76a7.25,7.25,0,0,1,.83.34L274,444.25a7.23,7.23,0,0,1,1.24.76Z" transform="translate(-108.69 -232)"/><path class="cls-2" d="M299.59,472.68l-29.6,27c0,0.87-4.85.87-4.85,0l5.67-49.48,0.31-.87s83-74.61,86.4-77.78,2.27-3.86,2.27-3.86c0.23-3.85-6.12,0-6.12,0l-110,69.85s13.83,45.35,16.56,54,4.32,8.46,4.91,8.46" transform="translate(-108.69 -232)"/><path class="cls-2" d="M267.56,507.47a13.62,13.62,0,0,1-3.48-.41c-6.12-.65-8.71-7.22-10.66-13.4-2.7-8.55-16-52.19-16.58-54a7.14,7.14,0,0,1,3-8.11l110-69.85,0.12-.08c3.51-2.13,8.6-4.12,12.93-1.52a8.34,8.34,0,0,1,3.93,5.93,7.82,7.82,0,0,1,.25,1.3c0.44,4.12-2.27,7.23-4.67,9.47-3.17,3-72.34,65.15-84.72,76.28l-3.83,33.45,20.93-19.09A7.14,7.14,0,1,1,304.4,478l-29,26.44c-1.42,1.71-3.86,3.07-7.84,3.07M252.1,440.64c2.09,6.84,5.88,19.25,9.18,30l2.44-21.27a7.17,7.17,0,0,1,.37-1.59l0.31-.87a7.15,7.15,0,0,1,2-2.91l47-42.24Z" transform="translate(-108.69 -232)"/><path class="cls-2" d="M299.58,479.82a7.11,7.11,0,0,1-4.39-1.52l-28.78-22.49a7.14,7.14,0,1,1,8.8-11.26L304,467.05a7.14,7.14,0,0,1-4.4,12.77" transform="translate(-108.69 -232)"/></svg>