<svg id="Слой_1" data-name="Слой 1" xmlns="http://www.w3.org/2000/svg" viewBox="0 0 365.89 365.89"><defs><style>.cls-1{fill:none;stroke:#004e9b;stroke-miterlimit:10;stroke-width:8px;}.cls-2{fill:#004e9b;fill-rule:evenodd;}</style></defs><title>vk_site</title><rect class="cls-1" x="4" y="4" width="357.89" height="357.89"/><path class="cls-2" d="M389.86,260.38c1.56-5.19,0-9-7.41-9H358c-6.23,0-9.1,3.29-10.66,6.93,0,0-12.46,30.36-30.1,50.09-5.71,5.71-8.3,7.53-11.42,7.53-1.56,0-3.81-1.82-3.81-7V260.38c0-6.23-1.81-9-7-9H256.48a5.91,5.91,0,0,0-6.23,5.63c0,5.9,8.82,7.27,9.73,23.88V317c0,7.91-1.43,9.34-4.54,9.34-8.3,0-28.5-30.5-40.48-65.4-2.35-6.78-4.7-9.52-11-9.52h-24.5c-7,0-8.4,3.29-8.4,6.93,0,6.49,8.3,38.67,38.67,81.23,20.24,29.06,48.76,44.82,74.71,44.82,15.57,0,17.5-3.5,17.5-9.53v-22c0-7,1.48-8.4,6.41-8.4,3.63,0,9.86,1.82,24.39,15.83,16.61,16.61,19.35,24.06,28.69,24.06H386c7,0,10.5-3.5,8.48-10.41-2.21-6.88-10.14-16.87-20.66-28.71-5.71-6.75-14.27-14-16.87-17.65-3.63-4.67-2.59-6.75,0-10.9,0,0,29.84-42,33-56.31h0Z" transform="translate(-100.1 -134.92)"/></svg>